PathFileType	4	(X/Y/Z)	7_2_29_p1_0-136_filt_butterworth.trc
DataRate	CameraRate	NumFrames	NumMarkers	Units	OrigDataRate	OrigDataStartFrame	OrigNumFrames
60.0	60.0	6	27	m	60.0	68	136
Frame#	Time	RHip			RKnee			RAnkle			RBigToe			RSmallToe			RHeel			LHip			LKnee			LAnkle			LBigToe			LSmallToe			LHeel			Neck			Head			Nose			RShoulder			RElbow			RWrist			RThumb			RIndex			RPinky			LShoulder			LElbow			LWrist			LThumb			LIndex			LPinky			
		X1	Y1	Z1	X2	Y2	Z2	X3	Y3	Z3	X4	Y4	Z4	X5	Y5	Z5	X6	Y6	Z6	X7	Y7	Z7	X8	Y8	Z8	X9	Y9	Z9	X10	Y10	Z10	X11	Y11	Z11	X12	Y12	Z12	X13	Y13	Z13	X14	Y14	Z14	X15	Y15	Z15	X16	Y16	Z16	X17	Y17	Z17	X18	Y18	Z18	X19	Y19	Z19	X20	Y20	Z20	X21	Y21	Z21	X22	Y22	Z22	X23	Y23	Z23	X24	Y24	Z24	X25	Y25	Z25	X26	Y26	Z26	X27	Y27	Z27	
68	1.1333333333333333	0.2857813260757095	0.3175534378214351	1.1806815785140963	0.2798371412862757	0.26519774358420173	1.5840736138178955	0.27941424273294024	0.292436368281953	2.047729248261326	0.24871662703064668	0.08477056665946307	1.9924254929397764	0.30861577097795645	0.09610823571767702	1.9808100879110835	0.26380200627085465	0.33782419811606074	2.131202798038617	0.06465229714349503	0.3130580915779996	1.1760967366383606	0.09302824764496036	0.28190613287797095	1.611165502876371	0.11071312993955473	0.25653395058801837	2.0124457272644194	0.10395053956774736	0.061634507294350896	1.9801968137318906	0.05801392751405206	0.11081810947051166	1.9784718622029374	0.11825480846193331	0.2980501776583258	2.073829143849674	0.20818424279032746	0.25030624549997965	0.6407636329750149	0.23299237568280293	0.2074585387975062	0.38632082402843676	0.22911593683269704	0.10406470290061498	0.48641758920035216	0.36130547111287215	0.24233128154005118	0.7163663483887914	0.4195851605386183	0.3050108649461732	0.965994128089209	0.35542238632339723	0.14061503279638723	1.0924868069142724	0.2442982005520169	0.08785004415169698	1.1484257143262864	0.25813244480112063	0.10077444962888718	1.166494778744075	0.2968526020093293	0.13276224508945442	1.1934866205313879	0.0400424535406845	0.23092575876893545	0.6987474484065961	-0.041460394920320116	0.3128018592280537	0.9627192422234122	0.031080585050178695	0.15291359366430682	1.1403513245558068	0.10345730871868708	0.08589247510890675	1.1644844299232928	0.09382051933349997	0.06841762384178009	1.2024084902519816	0.06880553575290486	0.10678267367741785	1.2280224998309461
69	1.15	0.2849078460872781	0.32149546203879076	1.1786099808692123	0.2779044379728637	0.26181021221916684	1.580588536803833	0.27770540697634877	0.2907335243098683	2.0472371878167364	0.24872384538385905	0.08412877804946722	1.9938948281817463	0.30875963500150455	0.09655708358841784	1.9811140229922888	0.26372692344249044	0.3378495655778249	2.1324627044486224	0.06377705970061168	0.3130797933607238	1.1748738186754206	0.09049481156739957	0.28147294959568897	1.6092957079707129	0.11050003194643968	0.25615739894568507	2.01128528357931	0.10463142643114098	0.06430732554991127	1.9819120645320218	0.057079202753403606	0.11670742537575599	1.9833790580368513	0.11787593834914292	0.2966093110363835	2.071914528596829	0.21448658118356786	0.23026707837494234	0.6414142078998347	0.24332878105137629	0.18565487266306835	0.3887785701329075	0.23681764223395432	0.08394519994459389	0.49579211021042285	0.36189616076117476	0.23564526307008526	0.7198131746080687	0.4190654718078443	0.315073345643955	0.9730621628338891	0.36189798074442037	0.14666958050446088	1.0954723910996405	0.25042522888135293	0.09385526038021073	1.1538648767552901	0.26342199970664093	0.10229449261592413	1.1689608075358997	0.30090529670957156	0.1334045035241325	1.1961466739925601	0.0458719832494292	0.21477626088119953	0.6998797803431498	-0.04312270532561237	0.31618828978213054	0.9692614974247145	0.01965366311001788	0.1612786765868766	1.144740540566663	0.09287607297914774	0.09511384541037993	1.1750111630861757	0.0837543498811226	0.08127929130328845	1.2105753814565376	0.06320856200421572	0.10650771869341859	1.2290481840703762
70	1.1666666666666667	0.2842576876226277	0.32301953195123667	1.1761355106625249	0.2759190378767907	0.25948128344792243	1.5777701814517977	0.27608646065189957	0.28738685576726164	2.0468467182861954	0.24845872467862445	0.08103093677368979	1.9926284396783154	0.3088892151663575	0.09665647394770628	1.9816012821434272	0.2637956450225299	0.33786788360378645	2.1333448552711354	0.06351437287427308	0.31350412252250914	1.1736208067990164	0.08797278697993346	0.28088298716853777	1.6062676171248305	0.11038426245649054	0.2554708781450755	2.0107916329593096	0.10559091720880008	0.06778842873598087	1.9841445234586932	0.056784904947786354	0.12159790399523471	1.98835783531724	0.11776871370900611	0.2963048574034217	2.0698058385854763	0.22087030876558425	0.21365725148709316	0.6431925945419591	0.25429186898482464	0.16068606707462946	0.39306260957098177	0.24318417228496447	0.06943006819789235	0.5057990819384132	0.3622088567304354	0.22776391263381446	0.7238116618260089	0.4182985002654251	0.3217448806490421	0.9801963066744518	0.3668829643355218	0.1517445470268738	1.098315053038006	0.25793832667341493	0.1004734056068414	1.159435065524221	0.2707347846331797	0.10425428926381408	1.1722925144482415	0.3055250816073217	0.13507041284439286	1.1980226142128505	0.05058118664838218	0.20349760363490174	0.7033143666989863	-0.04575938737781318	0.3175185074521464	0.9757860661085795	0.009525039574152369	0.16940918809820618	1.1496918661840683	0.08390488735454701	0.10466470124659905	1.1878738356674492	0.07554419634819315	0.09330900649537582	1.2177588997188162	0.056458989251457384	0.10849095980691964	1.231741055471417
71	1.1833333333333331	0.28380410693306596	0.32314283692449375	1.1744109779765255	0.27407855031402883	0.257747866152846	1.575870232748937	0.2751752322132146	0.2831787153060739	2.046901581096669	0.24760034081163626	0.07583735983244472	1.9896892935748505	0.3087346651568103	0.09565488481501302	1.9816217643477654	0.2634542832372097	0.3376902496965358	2.1337443872480613	0.06358527738510614	0.3142211844073534	1.1714762117136974	0.0866219922079106	0.2805466353018783	1.6014112644813856	0.11055245522901817	0.2548123451881558	2.011951750289575	0.10667571569803747	0.07045043941740493	1.9858299558050265	0.057057136233344054	0.12420664836922475	1.9923796916365895	0.11778376276530808	0.2966604543304395	2.068596447821587	0.2248746587522479	0.2029130539322426	0.6501174284348245	0.26367122360428163	0.13895952593395977	0.4022807414276207	0.2493897392339574	0.05786273593496178	0.5167175299267414	0.3628570577453649	0.2197796749619838	0.7300140646073294	0.41687996051574117	0.32277771211996953	0.9859360054332205	0.37010336140786954	0.15693180999656003	1.102434295461593	0.2655174332236388	0.10757072763513281	1.1652968705486877	0.27899915665152514	0.1070484391383465	1.17618792316032	0.31039334251948236	0.13996627297720138	1.2003794388609252	0.05374230116497249	0.19723431456938578	0.7092554278627646	-0.049001027260090556	0.31504619172068526	0.9810937883184871	0.001741177332613254	0.1756151898465188	1.154551724776346	0.07723009627127174	0.11197638959456639	1.2004674763972238	0.07038998395600972	0.10241062876249733	1.223062071526238	0.047751493677053274	0.1136166266031301	1.2370341803614313
72	1.2	0.28303811744273155	0.32384128924847133	1.1741821341086398	0.2727862837514142	0.25698322217202013	1.5761825875543323	0.27498437906310325	0.2797268611274596	2.0473588290287643	0.24606545649136996	0.07060014610156283	1.9860010839824407	0.30797710228686587	0.09308088543175456	1.9801178448518448	0.26228757835984384	0.33722897755580894	2.1337424285213817	0.0636345965331005	0.31479391799945955	1.1700518895104062	0.08632475856303995	0.2804081533364845	1.5966155791722336	0.11093136094832132	0.25452439459928	2.014212233219625	0.10794004975866853	0.07182760232386641	1.9866315096617784	0.057489815286065823	0.12515663583529765	1.9957553138612432	0.11774541856379266	0.2970154294329388	2.068613631519528	0.2262474766800196	0.19528927207997543	0.6638009793975188	0.2706786672422491	0.12152562143547255	0.4162407532866214	0.25680835565010396	0.044141075085918254	0.5295970123498567	0.3638268755346558	0.21408261337408102	0.7393397129503495	0.4144044696766804	0.32118903200026866	0.9904642080593349	0.37173620635410276	0.1629523307034633	1.1083426823251377	0.27127416660146025	0.11367555652048239	1.1713100033703059	0.28595527158924705	0.11180516803616806	1.1809941476766659	0.31459320396506557	0.14892638736864713	1.2050792967617217	0.056092230692550635	0.19353856038228018	0.7170117699468634	-0.05173449076265963	0.30926512727094513	0.9857480584582674	-0.0033962965763977932	0.17960084790020983	1.1593717151318397	0.0728643110663832	0.11628309784356033	1.2105394592658356	0.06794125390861568	0.10783546562338492	1.2265970030505566	0.03695110454334786	0.12076947437636329	1.2454118227814337
73	1.2166666666666666	0.2817090149931398	0.3264410793432139	1.176308847325205	0.2721400607406469	0.25880869790195854	1.5800890212865708	0.2746887454622505	0.27787546185768336	2.0477082410939627	0.24384489149481103	0.06706660304848025	1.9822620057297138	0.3067643619487572	0.08971513377456823	1.9771949533196573	0.26067266660612676	0.3367005448800542	2.133638061326653	0.06362847238469142	0.31479867222650737	1.1723728508460176	0.08599204171398263	0.27990872061791533	1.5953654123839647	0.11126647808686527	0.2545521759027046	2.016077303897779	0.10934064272357204	0.07259761148574553	1.9870699284441116	0.058106353221670515	0.12426146965858692	1.9982459515087883	0.11736374534848601	0.29631379171429345	2.069079375498812	0.22692968941915984	0.18765459101034487	0.6813925286254513	0.27591535936386546	0.10383017737440142	0.4308630462233166	0.26552923955230373	0.02685475492494354	0.544488842849462	0.36497221070115077	0.21183402306723695	0.7499853868571403	0.41119326267612	0.32210370968316093	0.9952909756203457	0.3722674187607913	0.16864749315750466	1.1144169457978916	0.2741242752426296	0.1173632849365056	1.1770889391218091	0.29020672485593796	0.11832086329799182	1.1867437574197606	0.3178806004346029	0.16060997273642152	1.2129278004769106	0.05816089254245585	0.19022283631362658	0.7262835652837726	-0.05322589355362102	0.3033344018251941	0.9915143829906046	-0.006317271796857523	0.1823197646013903	1.1645554655088646	0.07034840859755333	0.11894965524565329	1.217968903491091	0.06654205977187996	0.11102695121826774	1.2300819500575015	0.024824275031643927	0.12896055872262804	1.2574597969768635
